{"title":"This Week - S13E19 - 2015.02.12 - 468p x264","uid":11709699,"size":496878767,"categoryP":"video","categoryS":"tv_shows","magnet":"?xt=urn:btih:74750a7a27fb07df0204bb9c8b60665fd78de47a&amp;dn=This+Week+-+S13E19+-+2015.02.12+-+468p+x264&amp;tr=udp%3A%2F%2Ftracker.openbittorrent.com%3A80&amp;tr=udp%3A%2F%2Fopen.demonii.com%3A1337&amp;tr=udp%3A%2F%2Ftracker.coppersurfer.tk%3A6969&amp;tr=udp%3A%2F%2Fexodus.desync.com%3A6969","seeders":0,"leechers":0,"uploader":"rugbybill","files":3,"time":1424277149,"description":"POLITICAL: This Week\nOn: BBC 1 HD\nDate: Thursday 12th February 2015\nTime: 23:45 to 00:30\n\nAndrew Neil presents a review of the political week with Diane Abbott, Michael \nPortillo and Miranda Green. Comedian Andy Parsons looks at the trivialisation \nof politics. Crack open the Blue Nun and prepare to watch public service \nbroadcasting at its best.\n\nCredits\n \nPresenter\tAndrew Neil\nPanellist\tMichael Portillo\nPanellist\tDiane Abbott\nPanellist\tMiranda Green\nInterviewed Guest\tJacques Peretti\nInterviewed Guest\tAndy Parsons\nReporter\tVictoria Derbyshire\nEditor\tVicky Flind\nAssistant Editor\tRichard Garvin\nProduction Manager\tPaula Prynn\nProducer\tAndrew Bradley\nProducer\tJames Franklin\nProducer\tArryn Moy\nAssistant Producer\tEd Baranski\nDirector\tBarton MacFarlane\nExecutive Producer\tRobbie Gibb\nExecutive Producer\tSamir Shah\nProduction Company\tJuniper TV\n\n\nGeneral\nComplete name                            :\n  2015.02.12.This.Week.webrip.468p.x264.mp4\nFormat                                   : MPEG-4\nFormat profile                           : Base Media\nCodec ID                                 : isom\nFile size                                : 474 MiB\nDuration                                 : 44mn 4s\nOverall bit rate mode                    : Constant\nOverall bit rate                         : 1 503 Kbps\nWriting application                      : Lavf55.33.100\n\nVideo\nID                                       : 1\nFormat                                   : AVC\nFormat/Info                              : Advanced Video Codec\nFormat profile                           : &lt;a class=&quot;__cf_email__&quot; href=&quot;/cdn-cgi/l/email-protection&quot; data-cfemail=&quot;1f527e76715f532c312e&quot;&gt;[email&amp;#160;protected]&lt;/a&gt;&lt;script cf-hash='f9e31' type=&quot;text/javascript&quot;&gt;\n/* &lt;![CDATA[ */!function(){try{var t=&quot;currentScript&quot;in document?document.currentScript:function(){for(var t=document.getElementsByTagName(&quot;script&quot;),e=t.length;e--;)if(t[e].getAttribute(&quot;cf-hash&quot;))return t[e]}();if(t&amp;&amp;t.previousSibling){var e,r,n,i,c=t.previousSibling,a=c.getAttribute(&quot;data-cfemail&quot;);if(a){for(e=&quot;&quot;,r=parseInt(a.substr(0,2),16),n=2;a.length-n;n+=2)i=parseInt(a.substr(n,2),16)^r,e+=String.fromCharCode(i);e=document.createTextNode(e),c.parentNode.replaceChild(e,c)}}}catch(u){}}();/* ]]&gt; */&lt;/script&gt;\nFormat settings, CABAC                   : Yes\nFormat settings, ReFrames                : 2 frames\nCodec ID                                 : avc1\nCodec ID/Info                            : Advanced Video Coding\nDuration                                 : 44mn 4s\nBit rate mode                            : Constant\nBit rate                                 : 1 404 Kbps\nWidth                                    : 832 pixels\nHeight                                   : 468 pixels\nDisplay aspect ratio                     : 16:9\nFrame rate mode                          : Constant\nFrame rate                               : 25.000 fps\nColor space                              : YUV\nChroma subsampling                       : 4:2:0\nBit depth                                : 8 bits\nScan type                                : Progressive\nBits/(Pixel*Frame)                       : 0.144\nStream size                              : 443 MiB (93%)\n\nAudio\nID                                       : 2\nFormat                                   : AAC\nFormat/Info                              : Advanced Audio Codec\nFormat profile                           : LC\nCodec ID                                 : 40\nDuration                                 : 44mn 4s\nBit rate mode                            : Constant\nBit rate                                 : 93.5 Kbps\nChannel(s)                               : 2 channels\nChannel positions                        : Front: L R\nSampling rate                            : 48.0 KHz\nCompression mode                         : Lossy\nStream size                              : 29.5 MiB (6%)","torrent":{"xt":"urn:btih:74750a7a27fb07df0204bb9c8b60665fd78de47a","amp;dn":"This+Week+-+S13E19+-+2015.02.12+-+468p+x264","amp;tr":["udp%3A%2F%2Ftracker.openbittorrent.com%3A80","udp%3A%2F%2Fopen.demonii.com%3A1337","udp%3A%2F%2Ftracker.coppersurfer.tk%3A6969","udp%3A%2F%2Fexodus.desync.com%3A6969"],"infoHash":"74750a7a27fb07df0204bb9c8b60665fd78de47a","infoHashBuffer":{"type":"Buffer","data":[116,117,10,122,39,251,7,223,2,4,187,156,139,96,102,95,215,141,228,122]},"announce":[],"urlList":[]}}